<svg xmlns="http://www.w3.org/2000/svg" width="353" height="281" viewBox="0 0 353 281">
  <g id="Group_196289" data-name="Group 196289" transform="translate(-159 -1561)">
    <g id="Group_169248" data-name="Group 169248" transform="translate(159 1561)">
      <path id="Path_32228" data-name="Path 32228" d="M458.047,403.549c-29.386,4.458-59.661,2.6-121.521-2.064-34.736-2.62-104.577,1.721-139.438,2.064-25.416.251-46.021-22.744-46.021-50.8V177.781c0-28.056,20.648-52.451,46.021-50.8,23.562,1.533,58.22,7.6,94.348,3.885,42.969-4.419,124.527-8.173,166.611-3.885,25.309,2.579,46.021,22.744,46.021,50.8V352.749C504.068,380.805,483.227,399.729,458.047,403.549Z" transform="translate(-151.068 -125.092)" fill="#f4f4f4"/>
    </g>
    <g id="Group_196160" data-name="Group 196160" transform="translate(105.152 353.69)">
      <rect id="Rectangle_18735" data-name="Rectangle 18735" width="102.631" height="77.856" transform="translate(87.285 1254.477)" fill="#aae0ff"/>
      <rect id="Rectangle_18737" data-name="Rectangle 18737" width="2.24" height="3.093" transform="translate(94.186 1263.039)" fill="#fff"/>
      <rect id="Rectangle_18738" data-name="Rectangle 18738" width="2.24" height="3.093" transform="translate(94.186 1268.001)" fill="#fff"/>
      <rect id="Rectangle_18739" data-name="Rectangle 18739" width="2.24" height="3.093" transform="translate(94.186 1272.963)" fill="#fff"/>
      <rect id="Rectangle_18740" data-name="Rectangle 18740" width="2.24" height="3.093" transform="translate(94.186 1277.926)" fill="#fff"/>
      <rect id="Rectangle_18741" data-name="Rectangle 18741" width="2.24" height="3.093" transform="translate(94.186 1282.888)" fill="#fff"/>
      <rect id="Rectangle_18742" data-name="Rectangle 18742" width="2.24" height="3.093" transform="translate(94.186 1287.85)" fill="#fff"/>
      <rect id="Rectangle_18743" data-name="Rectangle 18743" width="2.24" height="3.093" transform="translate(94.186 1292.812)" fill="#fff"/>
      <rect id="Rectangle_18744" data-name="Rectangle 18744" width="2.24" height="3.093" transform="translate(94.186 1297.774)" fill="#fff"/>
      <rect id="Rectangle_18750" data-name="Rectangle 18750" width="2.24" height="3.093" transform="translate(94.186 1302.736)" fill="#fff"/>
      <rect id="Rectangle_18763" data-name="Rectangle 18763" width="2.24" height="3.093" transform="translate(94.186 1307.698)" fill="#fff"/>
      <rect id="Rectangle_18774" data-name="Rectangle 18774" width="2.24" height="3.093" transform="translate(94.186 1312.66)" fill="#fff"/>
      <rect id="Rectangle_18775" data-name="Rectangle 18775" width="2.24" height="3.093" transform="translate(94.186 1317.623)" fill="#fff"/>
      <rect id="Rectangle_18779" data-name="Rectangle 18779" width="2.24" height="3.093" transform="translate(94.186 1322.585)" fill="#fff"/>
      <rect id="Rectangle_18745" data-name="Rectangle 18745" width="20.887" height="3.093" transform="translate(101.152 1263.039)" fill="#407bd6"/>
      <rect id="Rectangle_18764" data-name="Rectangle 18764" width="20.887" height="3.093" transform="translate(134.004 1263.039)" fill="#407bd6"/>
      <rect id="Rectangle_18755" data-name="Rectangle 18755" width="9.026" height="3.093" transform="translate(123.403 1263.039)" fill="#407bd6"/>
      <rect id="Rectangle_18770" data-name="Rectangle 18770" width="9.026" height="3.093" transform="translate(156.36 1263.039)" fill="#407bd6"/>
      <rect id="Rectangle_18746" data-name="Rectangle 18746" width="13.257" height="3.093" transform="translate(101.152 1268.112)" fill="#407bd6"/>
      <rect id="Rectangle_18759" data-name="Rectangle 18759" width="19.139" height="3.093" transform="translate(129.112 1268.112)" fill="#f7440c"/>
      <rect id="Rectangle_18751" data-name="Rectangle 18751" width="11.764" height="3.093" transform="translate(115.773 1268.112)" fill="#407bd6"/>
      <rect id="Rectangle_18767" data-name="Rectangle 18767" width="10.967" height="3.093" transform="translate(149.72 1268.112)" fill="#407bd6"/>
      <rect id="Rectangle_18747" data-name="Rectangle 18747" width="17.858" height="3.093" transform="translate(101.152 1273.309)" fill="#407bd6"/>
      <rect id="Rectangle_18760" data-name="Rectangle 18760" width="11.616" height="3.093" transform="translate(130.19 1273.309)" fill="#407bd6"/>
      <rect id="Rectangle_18754" data-name="Rectangle 18754" width="8.127" height="3.093" transform="translate(120.427 1273.309)" fill="#407bd6"/>
      <rect id="Rectangle_18749" data-name="Rectangle 18749" width="14.747" height="3.093" transform="translate(107.292 1278.549)" fill="#407bd6"/>
      <rect id="Rectangle_18765" data-name="Rectangle 18765" width="20.887" height="3.093" transform="translate(134.004 1278.549)" fill="#407bd6"/>
      <rect id="Rectangle_18756" data-name="Rectangle 18756" width="9.026" height="3.093" transform="translate(123.403 1278.549)" fill="#407bd6"/>
      <rect id="Rectangle_18771" data-name="Rectangle 18771" width="9.026" height="3.093" transform="translate(156.36 1278.549)" fill="#407bd6"/>
      <rect id="Rectangle_18761" data-name="Rectangle 18761" width="19.139" height="3.093" transform="translate(129.112 1283.622)" fill="#407bd6"/>
      <rect id="Rectangle_18752" data-name="Rectangle 18752" width="11.764" height="3.093" transform="translate(115.773 1283.622)" fill="#f7440c"/>
      <rect id="Rectangle_18768" data-name="Rectangle 18768" width="10.967" height="3.093" transform="translate(149.72 1283.622)" fill="#407bd6"/>
      <rect id="Rectangle_18748" data-name="Rectangle 18748" width="20.887" height="3.093" transform="translate(101.152 1294.059)" fill="#407bd6"/>
      <rect id="Rectangle_18766" data-name="Rectangle 18766" width="20.887" height="3.093" transform="translate(134.004 1294.059)" fill="#407bd6"/>
      <rect id="Rectangle_18757" data-name="Rectangle 18757" width="9.026" height="3.093" transform="translate(123.403 1294.059)" fill="#407bd6"/>
      <rect id="Rectangle_18758" data-name="Rectangle 18758" width="13.257" height="3.093" transform="translate(115.776 1304.772)" fill="#407bd6"/>
      <rect id="Rectangle_18762" data-name="Rectangle 18762" width="19.139" height="3.093" transform="translate(129.112 1299.132)" fill="#407bd6"/>
      <rect id="Rectangle_18753" data-name="Rectangle 18753" width="11.764" height="3.093" transform="translate(115.773 1299.132)" fill="#407bd6"/>
      <rect id="Rectangle_18769" data-name="Rectangle 18769" width="10.967" height="3.093" transform="translate(149.72 1299.132)" fill="#407bd6"/>
      <rect id="Rectangle_18772" data-name="Rectangle 18772" width="20.887" height="3.093" transform="translate(101.152 1312.299)" fill="#407bd6"/>
      <rect id="Rectangle_18773" data-name="Rectangle 18773" width="9.026" height="3.093" transform="translate(123.403 1312.299)" fill="#407bd6"/>
      <rect id="Rectangle_18776" data-name="Rectangle 18776" width="13.257" height="3.093" transform="translate(101.152 1317.371)" fill="#407bd6"/>
      <rect id="Rectangle_18777" data-name="Rectangle 18777" width="19.139" height="3.093" transform="translate(129.112 1317.371)" fill="#f7440c"/>
      <rect id="Rectangle_18778" data-name="Rectangle 18778" width="11.764" height="3.093" transform="translate(115.773 1317.371)" fill="#407bd6"/>
      <rect id="Rectangle_18780" data-name="Rectangle 18780" width="17.858" height="3.093" transform="translate(101.152 1322.568)" fill="#407bd6"/>
      <rect id="Rectangle_18781" data-name="Rectangle 18781" width="11.616" height="3.093" transform="translate(130.19 1322.568)" fill="#407bd6"/>
      <rect id="Rectangle_18782" data-name="Rectangle 18782" width="8.127" height="3.093" transform="translate(120.427 1322.568)" fill="#407bd6"/>
      <rect id="Rectangle_18783" data-name="Rectangle 18783" width="19.65" height="3.093" transform="translate(143.332 1322.568)" fill="#407bd6"/>
      <rect id="Rectangle_18736" data-name="Rectangle 18736" width="102.627" height="8.79" transform="translate(87.285 1245.687)" fill="#fff"/>
      <path id="Path_91136" data-name="Path 91136" d="M0,279.362H102.627v-8.79H0Zm102.343-.283H.283v-8.223h102.06Z" transform="translate(87.285 975.114)" fill="#aae0ff"/>
      <path id="Path_91144" data-name="Path 91144" d="M536.652,288.142a1.5,1.5,0,1,1-1.5-1.5,1.5,1.5,0,0,1,1.5,1.5" transform="translate(-349.589 961.958)" fill="#aae0ff"/>
      <path id="Path_91142" data-name="Path 91142" d="M506.532,288.142a1.5,1.5,0,1,1-1.5-1.5,1.5,1.5,0,0,1,1.5,1.5" transform="translate(-324.932 961.958)" fill="#aae0ff"/>
      <path id="Path_91141" data-name="Path 91141" d="M475.821,288.142a1.5,1.5,0,1,1-1.5-1.5,1.5,1.5,0,0,1,1.5,1.5" transform="translate(-299.79 961.958)" fill="#aae0ff"/>
      <path id="Path_91137" data-name="Path 91137" d="M274.959,447.384l-14.814,25.659a2,2,0,0,0,1.727,2.992H291.5a2,2,0,0,0,1.727-2.992l-14.814-25.659a2,2,0,0,0-3.455,0" transform="translate(-125.461 831.184)" fill="#e21f26"/>
      <path id="Union_175" data-name="Union 175" d="M-6863.271-5423.905a.706.706,0,0,1-.63-.367.7.7,0,0,1,0-.724l14.814-25.659a.745.745,0,0,1,1.259,0l14.812,25.657a.707.707,0,0,1,0,.726.706.706,0,0,1-.63.365Zm.205-.846h29.218l-14.609-25.3Zm13.056-4.1a1.6,1.6,0,0,1,1.6-1.6,1.6,1.6,0,0,1,1.6,1.6,1.6,1.6,0,0,1-1.6,1.6A1.6,1.6,0,0,1-6850.009-5428.856Zm-.017-4.384-.5-7.239a2.115,2.115,0,0,1,2.11-2.26,2.116,2.116,0,0,1,2.11,2.26l-.5,7.239a1.619,1.619,0,0,1-1.614,1.507A1.617,1.617,0,0,1-6850.026-5433.24Z" transform="translate(6999.682 6729.856)" fill="#fff" stroke="rgba(0,0,0,0)" stroke-miterlimit="10" stroke-width="1"/>
    </g>
    <g id="Group_196159" data-name="Group 196159" transform="translate(108.378 25.124)">
      <rect id="Rectangle_18668" data-name="Rectangle 18668" width="117.052" height="88.796" transform="translate(225.325 1584.59)" fill="#aae0ff"/>
      <rect id="Rectangle_18669" data-name="Rectangle 18669" width="2.555" height="3.528" transform="translate(233.196 1594.356)" fill="#fff"/>
      <rect id="Rectangle_18670" data-name="Rectangle 18670" width="2.555" height="3.528" transform="translate(233.196 1600.016)" fill="#fff"/>
      <rect id="Rectangle_18671" data-name="Rectangle 18671" width="2.555" height="3.528" transform="translate(233.196 1605.675)" fill="#fff"/>
      <rect id="Rectangle_18672" data-name="Rectangle 18672" width="2.555" height="3.528" transform="translate(233.196 1611.335)" fill="#fff"/>
      <rect id="Rectangle_18673" data-name="Rectangle 18673" width="2.555" height="3.528" transform="translate(233.196 1616.994)" fill="#fff"/>
      <rect id="Rectangle_18674" data-name="Rectangle 18674" width="2.555" height="3.528" transform="translate(233.196 1622.653)" fill="#fff"/>
      <rect id="Rectangle_18675" data-name="Rectangle 18675" width="2.555" height="3.528" transform="translate(233.196 1628.313)" fill="#fff"/>
      <rect id="Rectangle_18676" data-name="Rectangle 18676" width="2.555" height="3.528" transform="translate(233.196 1633.972)" fill="#fff"/>
      <rect id="Rectangle_18677" data-name="Rectangle 18677" width="2.555" height="3.528" transform="translate(233.196 1639.632)" fill="#fff"/>
      <rect id="Rectangle_18678" data-name="Rectangle 18678" width="2.555" height="3.528" transform="translate(233.196 1645.291)" fill="#fff"/>
      <rect id="Rectangle_18679" data-name="Rectangle 18679" width="2.555" height="3.528" transform="translate(233.196 1650.95)" fill="#fff"/>
      <rect id="Rectangle_18680" data-name="Rectangle 18680" width="2.555" height="3.528" transform="translate(233.196 1656.61)" fill="#fff"/>
      <rect id="Rectangle_18681" data-name="Rectangle 18681" width="2.555" height="3.528" transform="translate(233.196 1662.27)" fill="#fff"/>
      <rect id="Rectangle_18682" data-name="Rectangle 18682" width="23.821" height="3.528" transform="translate(241.142 1594.356)" fill="#407bd6"/>
      <rect id="Rectangle_18683" data-name="Rectangle 18683" width="23.821" height="3.528" transform="translate(278.609 1594.356)" fill="#407bd6"/>
      <rect id="Rectangle_18684" data-name="Rectangle 18684" width="10.295" height="3.528" transform="translate(266.519 1594.356)" fill="#407bd6"/>
      <rect id="Rectangle_18685" data-name="Rectangle 18685" width="10.295" height="3.528" transform="translate(304.107 1594.356)" fill="#407bd6"/>
      <rect id="Rectangle_18686" data-name="Rectangle 18686" width="15.119" height="3.528" transform="translate(241.142 1600.142)" fill="#407bd6"/>
      <rect id="Rectangle_18687" data-name="Rectangle 18687" width="21.828" height="3.528" transform="translate(273.029 1600.142)" fill="#f7440c"/>
      <rect id="Rectangle_18688" data-name="Rectangle 18688" width="13.417" height="3.528" transform="translate(257.817 1600.142)" fill="#407bd6"/>
      <rect id="Rectangle_18689" data-name="Rectangle 18689" width="12.508" height="3.528" transform="translate(296.533 1600.142)" fill="#407bd6"/>
      <rect id="Rectangle_18690" data-name="Rectangle 18690" width="20.367" height="3.528" transform="translate(241.142 1606.069)" fill="#407bd6"/>
      <rect id="Rectangle_18691" data-name="Rectangle 18691" width="13.248" height="3.528" transform="translate(274.259 1606.069)" fill="#407bd6"/>
      <rect id="Rectangle_18692" data-name="Rectangle 18692" width="9.27" height="3.528" transform="translate(263.125 1606.069)" fill="#407bd6"/>
      <rect id="Rectangle_18693" data-name="Rectangle 18693" width="16.819" height="3.528" transform="translate(248.145 1612.045)" fill="#407bd6"/>
      <rect id="Rectangle_18694" data-name="Rectangle 18694" width="23.821" height="3.528" transform="translate(278.609 1612.045)" fill="#407bd6"/>
      <rect id="Rectangle_18695" data-name="Rectangle 18695" width="10.295" height="3.528" transform="translate(266.519 1612.045)" fill="#407bd6"/>
      <rect id="Rectangle_18696" data-name="Rectangle 18696" width="10.295" height="3.528" transform="translate(304.107 1612.045)" fill="#407bd6"/>
      <rect id="Rectangle_18697" data-name="Rectangle 18697" width="21.828" height="3.528" transform="translate(273.029 1617.831)" fill="#407bd6"/>
      <rect id="Rectangle_18698" data-name="Rectangle 18698" width="13.417" height="3.528" transform="translate(257.817 1617.831)" fill="#f7440c"/>
      <rect id="Rectangle_18699" data-name="Rectangle 18699" width="12.508" height="3.528" transform="translate(296.533 1617.831)" fill="#407bd6"/>
      <rect id="Rectangle_18700" data-name="Rectangle 18700" width="23.821" height="3.528" transform="translate(241.142 1629.735)" fill="#407bd6"/>
      <rect id="Rectangle_18701" data-name="Rectangle 18701" width="23.821" height="3.528" transform="translate(278.609 1629.735)" fill="#407bd6"/>
      <rect id="Rectangle_18702" data-name="Rectangle 18702" width="10.295" height="3.528" transform="translate(266.519 1629.735)" fill="#407bd6"/>
      <rect id="Rectangle_18703" data-name="Rectangle 18703" width="15.119" height="3.528" transform="translate(257.82 1641.954)" fill="#407bd6"/>
      <rect id="Rectangle_18704" data-name="Rectangle 18704" width="21.828" height="3.528" transform="translate(273.029 1635.521)" fill="#407bd6"/>
      <rect id="Rectangle_18705" data-name="Rectangle 18705" width="13.417" height="3.528" transform="translate(257.817 1635.521)" fill="#407bd6"/>
      <rect id="Rectangle_18706" data-name="Rectangle 18706" width="12.508" height="3.528" transform="translate(296.533 1635.521)" fill="#407bd6"/>
      <rect id="Rectangle_18707" data-name="Rectangle 18707" width="23.821" height="3.528" transform="translate(241.142 1650.537)" fill="#407bd6"/>
      <rect id="Rectangle_18708" data-name="Rectangle 18708" width="10.295" height="3.528" transform="translate(266.519 1650.537)" fill="#407bd6"/>
      <rect id="Rectangle_18709" data-name="Rectangle 18709" width="15.119" height="3.528" transform="translate(241.142 1656.323)" fill="#407bd6"/>
      <rect id="Rectangle_18710" data-name="Rectangle 18710" width="21.828" height="3.528" transform="translate(273.029 1656.323)" fill="#f7440c"/>
      <rect id="Rectangle_18711" data-name="Rectangle 18711" width="13.417" height="3.528" transform="translate(257.817 1656.323)" fill="#407bd6"/>
      <rect id="Rectangle_18712" data-name="Rectangle 18712" width="20.367" height="3.528" transform="translate(241.142 1662.25)" fill="#407bd6"/>
      <rect id="Rectangle_18713" data-name="Rectangle 18713" width="13.248" height="3.528" transform="translate(274.259 1662.25)" fill="#407bd6"/>
      <rect id="Rectangle_18714" data-name="Rectangle 18714" width="9.27" height="3.528" transform="translate(263.125 1662.25)" fill="#407bd6"/>
      <rect id="Rectangle_18715" data-name="Rectangle 18715" width="22.412" height="3.528" transform="translate(289.248 1662.25)" fill="#407bd6"/>
      <rect id="Rectangle_18716" data-name="Rectangle 18716" width="117.047" height="10.025" transform="translate(225.325 1574.565)" fill="#fff"/>
      <path id="Path_91068" data-name="Path 91068" d="M222.294.318H338.7V9.7h-116.4Zm-.323,9.7H339.018V-.005H221.971Z" transform="translate(3.354 1574.57)" fill="#aae0ff"/>
      <path id="Path_91069" data-name="Path 91069" d="M836.352,20.1a1.71,1.71,0,1,1-1.71-1.71,1.71,1.71,0,0,1,1.71,1.71" transform="translate(-497.229 1559.495)" fill="#aae0ff"/>
      <path id="Path_91070" data-name="Path 91070" d="M801.868,20.1a1.71,1.71,0,1,1-1.71-1.71,1.71,1.71,0,0,1,1.71,1.71" transform="translate(-468.975 1559.495)" fill="#aae0ff"/>
      <path id="Path_91071" data-name="Path 91071" d="M766.708,20.1a1.71,1.71,0,1,1-1.71-1.71,1.71,1.71,0,0,1,1.71,1.71" transform="translate(-440.167 1559.495)" fill="#aae0ff"/>
      <path id="Path_91072" data-name="Path 91072" d="M677.382,277.341l-16.263,28.168a2.189,2.189,0,0,0,1.9,3.284h32.526a2.189,2.189,0,0,0,1.9-3.284l-16.263-28.168a2.19,2.19,0,0,0-3.792,0" transform="translate(-356.213 1348.228)" fill="#ffd145"/>
      <path id="Path_91073" data-name="Path 91073" d="M701.853,313.808H669.327a.8.8,0,0,1-.69-1.2L684.9,284.443a.817.817,0,0,1,1.382,0l16.261,28.165a.8.8,0,0,1-.69,1.2m-32.3-.929h32.075L685.59,285.1Zm15.925-27.974v0Z" transform="translate(-362.526 1341.822)"/>
      <path id="Path_91074" data-name="Path 91074" d="M752.7,346.343h0a1.776,1.776,0,0,1-1.772-1.654l-.546-7.946a2.323,2.323,0,1,1,4.635,0l-.546,7.946a1.776,1.776,0,0,1-1.772,1.654" transform="translate(-429.592 1300.694)"/>
      <path id="Path_91075" data-name="Path 91075" d="M757.043,410.673a1.753,1.753,0,1,1-1.753-1.753,1.753,1.753,0,0,1,1.753,1.753" transform="translate(-432.179 1239.523)"/>
    </g>
    <g id="Group_196158" data-name="Group 196158" transform="translate(13.915 54.491)">
      <rect id="Rectangle_18717" data-name="Rectangle 18717" width="67.452" height="57.1" transform="translate(385.183 1655.923)" fill="#bababa"/>
      <rect id="Rectangle_18718" data-name="Rectangle 18718" width="67.447" height="9.982" transform="translate(385.183 1645.941)" fill="#fff"/>
      <path id="Path_91077" data-name="Path 91077" d="M1446.787,415.094a1.7,1.7,0,1,1-1.7-1.7,1.7,1.7,0,0,1,1.7,1.7" transform="translate(-997.392 1235.859)" fill="#acacac"/>
      <path id="Path_91078" data-name="Path 91078" d="M1412.45,415.094a1.7,1.7,0,1,1-1.7-1.7,1.7,1.7,0,0,1,1.7,1.7" transform="translate(-969.259 1235.859)" fill="#acacac"/>
      <path id="Path_91079" data-name="Path 91079" d="M1377.44,415.094a1.7,1.7,0,1,1-1.7-1.7,1.7,1.7,0,0,1,1.7,1.7" transform="translate(-940.574 1235.859)" fill="#acacac"/>
      <path id="Path_91080" data-name="Path 91080" d="M1179.294,527.791a14.5,14.5,0,0,0,1.937-5.39l.589.086,1.163.171H1183a16.236,16.236,0,0,0-.306-6.315l-1.73.428a14.51,14.51,0,0,0-2.447-5.178l1.434-1.066a16.172,16.172,0,0,0-4.681-4.255l-.924,1.531a14.48,14.48,0,0,0-5.39-1.937l.258-1.767a16.346,16.346,0,0,0-6.315.306l.428,1.73a14.5,14.5,0,0,0-5.178,2.447l-1.066-1.434a16.17,16.17,0,0,0-4.255,4.681l1.532.924a14.478,14.478,0,0,0-1.937,5.39l-1.25-.184-.511-.071-.006,0a16.345,16.345,0,0,0,.305,6.315l1.73-.428a14.539,14.539,0,0,0,2.453,5.181l-1.434,1.066a16.137,16.137,0,0,0,4.675,4.251l.924-1.532a14.519,14.519,0,0,0,5.4,1.941l-.2,1.373-.056.394a16.31,16.31,0,0,0,6.31-.309l-.428-1.73a14.661,14.661,0,0,0,5.187-2.449l1.066,1.434a16.257,16.257,0,0,0,4.245-4.678Zm-16.55-.748a7.9,7.9,0,1,1,10.847-2.691,7.9,7.9,0,0,1-10.847,2.691" transform="translate(-757.408 1161.68)" fill="#fff"/>
      <path id="Path_91081" data-name="Path 91081" d="M1359.115,627.708a7.346,7.346,0,0,0,.982-2.731l.3.044.589.087h.007a8.227,8.227,0,0,0-.155-3.2l-.876.217a7.35,7.35,0,0,0-1.24-2.623l.726-.54a8.192,8.192,0,0,0-2.372-2.156l-.468.776a7.336,7.336,0,0,0-2.731-.982l.131-.895a8.279,8.279,0,0,0-3.2.155l.217.876a7.355,7.355,0,0,0-2.624,1.24l-.54-.726a8.188,8.188,0,0,0-2.155,2.372l.776.468a7.337,7.337,0,0,0-.981,2.731l-.633-.093-.259-.036,0,0a8.284,8.284,0,0,0,.155,3.2l.876-.217a7.362,7.362,0,0,0,1.243,2.625l-.726.54a8.179,8.179,0,0,0,2.369,2.154l.468-.776a7.348,7.348,0,0,0,2.734.983l-.1.7-.028.2a8.268,8.268,0,0,0,3.2-.156l-.217-.876a7.432,7.432,0,0,0,2.628-1.241l.54.726a8.24,8.24,0,0,0,2.151-2.37Zm-8.385-.379a4,4,0,1,1,5.5-1.363,4,4,0,0,1-5.5,1.363" transform="translate(-916.39 1070.168)" fill="#fff"/>
      <path id="Path_91082" data-name="Path 91082" d="M1374.189,693.65a16.319,16.319,0,1,1-16.319-16.319,16.319,16.319,0,0,1,16.319,16.319" transform="translate(-913.959 1019.604)" fill="#e21f26"/>
      <path id="Union_174" data-name="Union 174" d="M-6860.725-5431.641l-3.275-8.326,11.318-4.451,3.276,8.324c.33.84-8.943,4.579-10.949,4.579C-6860.561-5431.515-6860.691-5431.554-6860.725-5431.641Zm3.075-8.8a1.5,1.5,0,0,0-.853,1.945,1.506,1.506,0,0,0,1.326.949l.93,2.365a.62.62,0,0,0,.8.348.617.617,0,0,0,.344-.8l-.928-2.36a1.492,1.492,0,0,0,.322-1.6,1.494,1.494,0,0,0-1.392-.951A1.5,1.5,0,0,0-6857.65-5440.445Zm2.641-4.413.084-.6a3.79,3.79,0,0,0-3.219-4.277,3.791,3.791,0,0,0-4.277,3.22l-.084.6-1.218-.172.083-.6a5.022,5.022,0,0,1,5.669-4.265,5.02,5.02,0,0,1,4.266,5.667l-.084.6Z" transform="translate(7301.554 7155.082)" fill="#fff" stroke="rgba(0,0,0,0)" stroke-miterlimit="10" stroke-width="1"/>
    </g>
    <path id="Path_91085" data-name="Path 91085" d="M584.663,941.367s-12.948,9.822-13.394,48.665c-18.77-4.733-26.751-5.1-28.564,9.771-2.936,24.074,63.836,17.017,63.836,17.017,10.727-72.571-4.7-84.158-21.877-75.453" transform="translate(-259.358 805.31)" fill="#333"/>
    <path id="Path_91086" data-name="Path 91086" d="M852.915,972.93H769.821c-18.391-12.258-6.989-59-12.911-70.117,7.793-28.782,47.2-28.345,63.769-1.335,12.67,20.658,25.209,47.177,32.236,71.452" transform="translate(-434.941 852.548)" fill="#272727"/>
    <path id="Path_91087" data-name="Path 91087" d="M756.6,1052.8a.452.452,0,0,1-.45-.423c-.24-3.775-.059-8.693.116-13.45.327-8.88.7-18.945-1.96-19.8a.452.452,0,0,1,.276-.86c3.31,1.061,2.975,10.158,2.588,20.691-.174,4.734-.354,9.63-.117,13.359a.452.452,0,0,1-.422.479H756.6" transform="translate(-432.547 740.274)" fill="#666"/>
    <path id="Path_91088" data-name="Path 91088" d="M425.761,1256.905l-10.191,1.267a10.644,10.644,0,0,0-3.389,2.919c-.47,4.824-5.282,3.5-5.282,3.5s2.633-6.761,6.45-10.547c3.767-2.381,12.249-5.327,12.249-5.327,5.052-.578,6.889,7.375.163,8.189" transform="translate(-148.165 551.472)" fill="#0e0e0e"/>
    <path id="Path_91089" data-name="Path 91089" d="M465.395,1260.994l-9.407.724a11.073,11.073,0,0,0-2.712,3.633c-.021,2.106-2.413,6.261-4.408,5.318-.146-4.6,1.156-7.89,4.108-12.468,3.191-3.195,12.257-5.4,12.257-5.4,5.052-.578,6.889,7.375.163,8.189" transform="translate(-182.542 548.121)" fill="#0e0e0e"/>
    <path id="Path_91090" data-name="Path 91090" d="M486.821,1280.458a10.249,10.249,0,0,1,.926-3.924l.568-.328-3.241-3.014a9.231,9.231,0,0,0-.909,1.7c-.8,4.767-.718,7.878.954,11.478,1.9-.014,2.4-4.231,1.7-5.912" transform="translate(-211.069 531.393)" fill="#0e0e0e"/>
    <path id="Path_91091" data-name="Path 91091" d="M403.08,1259.962l-9.33-1.16a22.509,22.509,0,0,0-5.293,1.865c-1.231,1.649-5.516,3.37-6.548,1.323,2.538-3.729,5.463-5.476,10.434-7.165a90.064,90.064,0,0,1,12.6-2.225c5.012.89,4.82,8.5-1.865,7.363" transform="translate(-127.689 548.265)" fill="#0e0e0e"/>
    <path id="Path_91092" data-name="Path 91092" d="M487,1232.686c.507,4.208-1.451,8.488-9.8,8.087a22.666,22.666,0,0,1-12.665-4.507l.166-4.8c5.641-.6,7.175-.628,10.826-2.674,5.566-2.711,10.969-.312,11.476,3.9" transform="translate(-195.389 568.716)" fill="#0e0e0e"/>
    <path id="Path_91093" data-name="Path 91093" d="M427.66,1235.769l3.721,2.493a19.186,19.186,0,0,0,13.755,2.841l-4.969-9.536s-8.195-.219-10.493-.526-9.856-.119-10.137-.138c-.766,5.4,8.123,4.865,8.123,4.865" transform="translate(-158.481 566.074)" fill="#0e0e0e"/>
    <path id="Path_91094" data-name="Path 91094" d="M568.2,631.847s-22.253-33.864,17.729-51.09c39.521-17.028,42.594,39.008,39.647,53.185-3.172,15.265-21.6,25.787-27.237,24.175,0,0-17.406-4.674-30.138-26.27" transform="translate(-275.264 1101.343)" fill="#272727"/>
    <path id="Path_91095" data-name="Path 91095" d="M714.98,994.424a.628.628,0,0,1-.163-.021c-5.27-1.405-10.9-5.934-11.133-6.126a.632.632,0,0,1,.8-.982c.056.045,5.656,4.551,10.662,5.886a.632.632,0,0,1-.162,1.243" transform="translate(-391.139 765.755)" fill="#666"/>
    <path id="Path_91096" data-name="Path 91096" d="M566.15,672.375c-4.832,15.979,5.226,37.814,19.148,42.024s26.437-10.8,31.269-26.779-2.537-32.346-16.46-36.556-29.126,5.331-33.958,21.311" transform="translate(-277.639 1041.94)" fill="#fbd6db"/>
    <path id="Path_91097" data-name="Path 91097" d="M607.569,764.692c-14.672,5.273-33.868,6.168-44.576.488a22.49,22.49,0,0,0-.684,16.741c20.173,16.057,50.706-.072,50.706-.072Z" transform="translate(-274.409 948.026)" fill="#e21f26"/>
    <path id="Path_91098" data-name="Path 91098" d="M613.643,901.515a3.7,3.7,0,0,1-1.852-.47,2.822,2.822,0,0,1-1.4-2.9,2.618,2.618,0,0,1,1.067-1.872,4.847,4.847,0,0,1,3.339-.531.356.356,0,0,1-.14.7,4.194,4.194,0,0,0-2.787.414,1.908,1.908,0,0,0-.773,1.384,2.1,2.1,0,0,0,1.053,2.193c.9.522,2.594.644,4.392-.733a.356.356,0,0,1,.433.566,5.492,5.492,0,0,1-3.33,1.254" transform="translate(-314.866 840.729)" fill="#803221"/>
    <path id="Path_91099" data-name="Path 91099" d="M672.568,829.477a3.759,3.759,0,0,0,2.884,4.773c4.755.779,6.581-6.333,4.363-7.059-1.771.653-5.115,1.464-7.247,2.286" transform="translate(-365.703 896.818)" fill="#fff"/>
    <path id="Path_91100" data-name="Path 91100" d="M573.592,799.172a3.876,3.876,0,0,0,2.143,4.856c1.966.83,4.923.861,5.705-.991a21.94,21.94,0,0,1-4.233-5.095c-1.149-1.962-2.85-1.116-3.615,1.23" transform="translate(-284.573 921.678)" fill="#fff"/>
    <path id="Path_91101" data-name="Path 91101" d="M686.973,842.591c.053,1.014.561,1.811,1.135,1.781s.995-.877.942-1.89-.561-1.811-1.135-1.781-.995.876-.942,1.89" transform="translate(-377.636 885.749)" fill="#0e0e0e"/>
    <path id="Path_91102" data-name="Path 91102" d="M586.43,815.181c.107,1.01.657,1.779,1.228,1.718s.947-.928.839-1.938-.657-1.778-1.229-1.718-.946.928-.839,1.938" transform="translate(-295.246 908.249)" fill="#0e0e0e"/>
    <path id="Path_91103" data-name="Path 91103" d="M667.154,928.664a20.078,20.078,0,0,1-17.474,1.648c2.012,7.766,5.859,8.574,5.859,8.574a17.373,17.373,0,0,0,11.615-10.222" transform="translate(-347.083 813.677)" fill="#fff"/>
    <path id="Path_91104" data-name="Path 91104" d="M745.078,916.743a.356.356,0,0,1-.29-.562,2.34,2.34,0,0,0-.031-2.136,2.563,2.563,0,0,0-2.179-1.521.356.356,0,1,1,.063-.71,3.287,3.287,0,0,1,2.763,1.933,3.018,3.018,0,0,1-.035,2.847.356.356,0,0,1-.291.15" transform="translate(-422.932 827.485)" fill="#bd4a31"/>
    <path id="Path_91105" data-name="Path 91105" d="M753.514,898.18l6.089,4.013c5.972-4.145,10.742-9.211,11.209-17.574l-2.768-3.736Z" transform="translate(-432.159 852.826)" fill="#fbd6db"/>
    <path id="Path_91106" data-name="Path 91106" d="M586.241,688.743a7.749,7.749,0,0,0,.117,10.311c-.352-5.976,5.579-9.071,5.579-9.071s-1.478,6.845,3.795,10.594c.117-8.319,5.863-9.286,5.863-9.286s1.478,8.394,6.206,11.513c0-6.445,1.138-9.2,1.138-9.2a19.813,19.813,0,0,1,7.11,9.927s8.933-16.7-11.775-20.036c-13.651-2.2-18.033,5.247-18.033,5.247" transform="translate(-293.512 1014.886)" fill="#333"/>
    <path id="Path_91107" data-name="Path 91107" d="M633.085,944.972,630.171,974.9c-4.4-4.381-18.982-16.438-30.111-13.114l-8.048,10.878c-.829,10.088,32.155,36.425,43.5,32.376,26.47-3.907,40.547-56.088,39.479-67.089-1.392-15.366-36.415-25.792-41.911,7.021" transform="translate(-299.822 818.013)" fill="#333"/>
    <path id="Path_91108" data-name="Path 91108" d="M585.529,1121.711s3.431-2.27,5.8,0c5.511,5.279-2.4,20.023-11.487,15.78-6.092-2.843,1.45-12.705,5.685-15.78" transform="translate(-287.991 656.333)" fill="#666"/>
    <path id="Path_91109" data-name="Path 91109" d="M649.083,1142.47a.234.234,0,0,1-.134-.042.237.237,0,0,1-.061-.329c4.773-6.932,1.362-11.447,1.327-11.491a.237.237,0,0,1,.372-.292c.037.047,3.671,4.819-1.309,12.052a.237.237,0,0,1-.2.1" transform="translate(-346.401 648.531)" fill="#153566"/>
    <path id="Path_91110" data-name="Path 91110" d="M549.8,1095.6c-1.511.805-4.026-.312-5.9-2.85-1.554-2.108-2.986-5.837-3.835-12.221-6.3-8.166-.881-10.664,1.859-8.529,8.6,6.7,10.521,8.058,12.966,9.841,2.078,1.515,1.838,11.587-5.095,13.758" transform="translate(-254.874 696.832)" fill="#0e0e0e"/>
    <path id="Path_91111" data-name="Path 91111" d="M578.175,1169.463a6.925,6.925,0,0,1-3.584-2.808.075.075,0,0,1-.02-.048s2.163-.721,4.025-5.19c0,0-2.452,6.784-.421,8.047" transform="translate(-285.545 622.975)" fill="#0e0e0e"/>
    <path id="Path_91112" data-name="Path 91112" d="M513.365,1037.635s-5.064-3.611-11.529-9.184c-2.1,1.264.352,8.178,4.667,10.556,2.954,1.627,6.229.585,6.862-1.372" transform="translate(-225.322 731.918)" fill="#0e0e0e"/>
    <path id="Path_91113" data-name="Path 91113" d="M518.07,1090.392c-6.1-.995-6.626,8.657-2.9,14.668,5.7,9.2,11.29,1.551,12.521-1.921,2.252-6.351-2.142-11.528-9.621-12.747" transform="translate(-234.95 681.226)" fill="#0e0e0e"/>
    <path id="Path_91114" data-name="Path 91114" d="M558.149,1147.207a.271.271,0,0,1-.059-.011,2.621,2.621,0,0,1-1.561-1.788,11.512,11.512,0,0,1,1.384-9.054.261.261,0,1,1,.435.291,10.923,10.923,0,0,0-1.326,8.588,2.211,2.211,0,0,0,1.221,1.463.262.262,0,0,1-.093.511" transform="translate(-270.433 643.604)" fill="#595959"/>
    <path id="Path_91115" data-name="Path 91115" d="M531.044,1135.638a.262.262,0,0,1-.127-.043c-4.766-3.171-5.352-10.143-2.9-14.417a.261.261,0,1,1,.453.261c-2.34,4.073-1.793,10.709,2.733,13.72a.261.261,0,0,1-.162.479" transform="translate(-246.241 656.051)" fill="#595959"/>
    <path id="Path_91116" data-name="Path 91116" d="M515.17,1105.059c5.7,9.2,11.29,1.551,12.521-1.921,2.252-6.351-2.142-11.528-9.621-12.747a5.248,5.248,0,0,0-.845-.072c-5.3,0-5.6,9.018-2.054,14.739" transform="translate(-234.95 681.227)" fill="none"/>
    <path id="Path_91117" data-name="Path 91117" d="M568.457,624.66s-.006-8.817,11.107-11.967c13.067-3.7,35.134,7.554,28.5,51.775,6.285,2.417,8.3.443,17.043-18.494,6.245-13.941,1.339-55.276-23.087-55-21.274.242-36.509,21.428-33.563,33.684" transform="translate(-280.236 1090.358)" fill="#272727"/>
    <path id="Path_91118" data-name="Path 91118" d="M765.824,819.342a.633.633,0,0,1-.608-.808c6.057-20.989.579-39.175-3.164-45.859a.632.632,0,0,1,1.1-.618c3.832,6.843,9.449,25.437,3.276,46.828a.632.632,0,0,1-.607.457" transform="translate(-439.088 942.256)" fill="#666"/>
    <path id="Path_91119" data-name="Path 91119" d="M1111.023,1128.769l-.436-1.524a1.453,1.453,0,0,0-1.633-1.012l-13.571,2.561a1.163,1.163,0,0,0-.917,1.493l7.7,26.932,35.105-6.625-7.265-25.408Z" transform="translate(-711.473 652.659)" fill="#1150b3"/>
    <path id="Path_91120" data-name="Path 91120" d="M1144.843,1128.785l-34.423,6.5,4.859,24.886,34.934-6.592Z" transform="translate(-724.585 649.711)" fill="#fff"/>
    <path id="Path_91121" data-name="Path 91121" d="M1157.908,1148.588l-35.1,6.625-3.188-24.881a1.338,1.338,0,0,1,1.1-1.5l32.127-6.063a1.669,1.669,0,0,1,1.931,1.388Z" transform="translate(-732.11 654.666)" fill="#40b0ff"/>
    <rect id="Rectangle_18721" data-name="Rectangle 18721" width="27.442" height="20.855" transform="translate(408.024 1810.33) rotate(-86.362)" fill="#cfd9e8"/>
    <rect id="Rectangle_18722" data-name="Rectangle 18722" width="24.844" height="18.293" transform="translate(409.385 1809.115) rotate(-86.362)" fill="#086cd3"/>
    <path id="Path_91122" data-name="Path 91122" d="M1251.087,1170.242l-1.062,16.7,9.364-8.548Z" transform="translate(-838.969 615.743)" fill="#bcc5d3"/>
    <path id="Path_91123" data-name="Path 91123" d="M1249.185,1212.273l-.892,14.031,7.744-7.131Z" transform="translate(-837.549 581.306)" fill="#bcc5d3"/>
    <path id="Path_91124" data-name="Path 91124" d="M1301.813,1238.09a1.938,1.938,0,1,1,2.057-1.811,1.937,1.937,0,0,1-2.057,1.811" transform="translate(-879.914 563.326)" fill="#bcc5d3"/>
    <rect id="Rectangle_18723" data-name="Rectangle 18723" width="27.442" height="20.855" transform="matrix(0.537, -0.844, 0.844, 0.537, 413.495, 1802.816)" fill="#e3eeff"/>
    <rect id="Rectangle_18724" data-name="Rectangle 18724" width="24.844" height="18.293" transform="matrix(0.537, -0.844, 0.844, 0.537, 415.273, 1802.407)" fill="#3397ff"/>
    <path id="Path_91125" data-name="Path 91125" d="M1307.6,1156.251l-8.978,14.121,12.324-2.977Z" transform="translate(-878.787 627.207)" fill="#e3eeff"/>
    <path id="Path_91126" data-name="Path 91126" d="M1291.511,1191.791l-7.544,11.865,10.222-2.517Z" transform="translate(-866.779 598.087)" fill="#e3eeff"/>
    <path id="Path_91127" data-name="Path 91127" d="M1350.526,1240.971a1.938,1.938,0,1,1,2.675-.6,1.937,1.937,0,0,1-2.675.6" transform="translate(-920.577 560.721)" fill="#e3eeff"/>
    <rect id="Rectangle_18725" data-name="Rectangle 18725" width="49.503" height="21.556" transform="translate(394.895 1802.052)" fill="#dd9e58"/>
    <rect id="Rectangle_18726" data-name="Rectangle 18726" width="12.757" height="21.556" transform="translate(382.138 1802.052)" fill="#c48e53"/>
    <path id="Path_91128" data-name="Path 91128" d="M1210.072,1221.025h-49.5l8.571-8.411h49.5Z" transform="translate(-765.674 581.026)" fill="#c48e53"/>
    <path id="Path_91129" data-name="Path 91129" d="M1065.011,1271.253h-12.757l6.812-12.083h12.757Z" transform="translate(-676.927 542.881)" fill="#dd9e58"/>
    <rect id="Rectangle_18727" data-name="Rectangle 18727" width="11.038" height="4.836" transform="translate(431.103 1817.295)" fill="#c48e53"/>
    <path id="Path_91130" data-name="Path 91130" d="M43.882,958.057a5.7,5.7,0,0,0,4,1.507H91.665a2.25,2.25,0,0,0,0-4.5H47.618a.846.846,0,0,1-.7-.362.927.927,0,0,1-.18-.783L62.521,885.93l3.394-14.6H73.95v-4.68H64.329v.04a2.223,2.223,0,0,0-2.35,1.687l-2.611,11.248L42.375,952.875a5.376,5.376,0,0,0,1.506,5.182" transform="translate(150.635 864.489)" fill="#5e5e5e"/>
    <path id="Path_91131" data-name="Path 91131" d="M137.159,879.623l3.153,6.307,3.394-14.6h8.034v-4.68H142.12v.04a2.223,2.223,0,0,0-2.35,1.687Z" transform="translate(72.844 864.489)" fill="#404040"/>
    <path id="Path_91132" data-name="Path 91132" d="M63.261,450.538l5.02-1.867,55.487,149.174-5.02,1.867c-.723-.86-1.422-1.739-2.112-2.623L63.262,450.574Z" transform="translate(133.391 1206.953)" fill="#a6a6a6"/>
    <path id="Path_91133" data-name="Path 91133" d="M116.637,605.718a91.79,91.79,0,0,1-13.68-24.469l-34.1-91.671a89.231,89.231,0,0,1-5.591-29.965l-.005-.41Z" transform="translate(133.39 1198.325)" fill="#5e5e5e"/>
    <path id="Path_91134" data-name="Path 91134" d="M400.107,1368.917H353.862a1.322,1.322,0,0,1,0-2.643h46.246a1.322,1.322,0,0,1,0,2.643" transform="translate(-103.626 455.127)" fill="#4f4f4f"/>
    <rect id="Rectangle_18729" data-name="Rectangle 18729" width="4.743" height="2.051" transform="translate(290.324 1820.418)" fill="#4f4f4f"/>
    <rect id="Rectangle_18730" data-name="Rectangle 18730" width="4.743" height="2.051" transform="translate(282.717 1820.418)" fill="#4f4f4f"/>
    <rect id="Rectangle_18731" data-name="Rectangle 18731" width="4.744" height="2.051" transform="translate(275.11 1820.418)" fill="#4f4f4f"/>
    <rect id="Rectangle_18732" data-name="Rectangle 18732" width="4.743" height="2.051" transform="translate(267.504 1820.418)" fill="#4f4f4f"/>
    <rect id="Rectangle_18733" data-name="Rectangle 18733" width="4.743" height="2.051" transform="translate(259.897 1820.418)" fill="#4f4f4f"/>
    <rect id="Rectangle_18734" data-name="Rectangle 18734" width="4.743" height="2.051" transform="translate(252.29 1820.418)" fill="#4f4f4f"/>
    <path id="Path_91135" data-name="Path 91135" d="M291.518,1383.139a2.191,2.191,0,0,0-2.191-2.191H2.578a2.22,2.22,0,1,0,0,4.381h286.75a2.191,2.191,0,0,0,2.191-2.191" transform="translate(185.223 443.104)" fill="#0e0e0e"/>
  </g>
</svg>
